<svg width="22" height="13" viewBox="0 0 22 13" fill="none" xmlns="http://www.w3.org/2000/svg">
<path d="M21.7482 12.724C21.6684 12.8115 21.5737 12.8809 21.4694 12.9283C21.3651 12.9756 21.2533 13 21.1405 13C21.0276 13 20.9158 12.9756 20.8116 12.9283C20.7073 12.8809 20.6125 12.8115 20.5327 12.724L11 2.27455L1.46722 12.724C1.38741 12.8115 1.29266 12.8809 1.18839 12.9282C1.08411 12.9756 0.972346 12.9999 0.859478 12.9999C0.74661 12.9999 0.634847 12.9756 0.53057 12.9282C0.426293 12.8809 0.331545 12.8115 0.251735 12.724C0.171926 12.6365 0.108617 12.5327 0.065424 12.4184C0.0222312 12.3041 0 12.1815 0 12.0578C0 11.9341 0.0222312 11.8116 0.065424 11.6973C0.108617 11.583 0.171926 11.4791 0.251735 11.3916L10.3922 0.275994C10.472 0.188495 10.5668 0.119085 10.6711 0.071729C10.7753 0.0243734 10.8871 0 11 0C11.1129 0 11.2246 0.0243734 11.3289 0.071729C11.4332 0.119085 11.5279 0.188495 11.6077 0.275994L21.7482 11.3916C21.828 11.4791 21.8914 11.583 21.9346 11.6973C21.9778 11.8116 22 11.9341 22 12.0578C22 12.1815 21.9778 12.3041 21.9346 12.4184C21.8914 12.5327 21.828 12.6365 21.7482 12.724Z" fill="#191A42"/>
</svg>
